<svg width="48" height="49" viewBox="0 0 48 49" fill="none" xmlns="http://www.w3.org/2000/svg">
<rect y="0.5" width="48" height="48" rx="8" fill="#335CA6" fill-opacity="0.15"/>
<path d="M25.2 23C24.4 22.8 23.6 22.4 23 21.8C22.4 21.6 22.2 21 22.2 20.6C22.2 20.2 22.4 19.6 22.8 19.4C23.4 19 24 18.6 24.6 18.8C25.8 18.8 26.8 19.4 27.4 20.2L29.2 17.8C28.6 17.2 28 16.8 27.4 16.4C26.8 16 26 15.8 25.2 15.8V13H22.8V15.8C21.8 16 20.8 16.6 20 17.4C19.2 18.4 18.6 19.6 18.8 20.8C18.8 22 19.2 23.2 20 24C21 25 22.4 25.6 23.6 26.2C24.2 26.4 25 26.8 25.6 27.2C26 27.6 26.2 28.2 26.2 28.8C26.2 29.4 26 30 25.6 30.6C25 31.2 24.2 31.4 23.6 31.4C22.8 31.4 21.8 31.2 21.2 30.6C20.6 30.2 20 29.6 19.6 29L17.6 31.2C18.2 32 18.8 32.6 19.6 33.2C20.6 33.8 21.8 34.4 23 34.4V37H25.2V34C26.4 33.8 27.4 33.2 28.2 32.4C29.2 31.4 29.8 29.8 29.8 28.4C29.8 27.2 29.4 25.8 28.4 25C27.4 24 26.4 23.4 25.2 23ZM24 9C15.2 9 8 16.2 8 25C8 33.8 15.2 41 24 41C32.8 41 40 33.8 40 25C40 16.2 32.8 9 24 9ZM24 38.8C16.4 38.8 10.2 32.6 10.2 25C10.2 17.4 16.4 11.2 24 11.2C31.6 11.2 37.8 17.4 37.8 25C37.8 32.6 31.6 38.8 24 38.8Z" fill="#335CA6"/>
</svg>
