<svg width="48" height="49" viewBox="0 0 48 49" fill="none" xmlns="http://www.w3.org/2000/svg">
<rect y="0.5" width="48" height="48" rx="8" fill="#335CA6" fill-opacity="0.19"/>
<path d="M24.1866 8.5C23.9355 8.5 23.6844 8.50679 23.4333 8.51832L23.4876 9.7386C23.7183 9.72774 23.9491 9.72163 24.1866 9.72163C32.2494 9.72163 38.7784 16.2506 38.7784 24.3134C38.7784 32.3761 32.2494 38.9051 24.1866 38.9051C18.1056 38.9051 12.8967 35.1927 10.7046 29.9057L12.5798 29.3424L9.2929 27.0145L8 30.7134L9.53043 30.2586C11.8807 36.041 17.5627 40.1267 24.1866 40.1267C32.9145 40.1267 40 33.0413 40 24.3134C40 15.5855 32.9145 8.5 24.1866 8.5ZM22.0963 8.63845C21.1936 8.75722 20.3249 8.95065 19.4766 9.21398L19.8566 10.3738C20.6303 10.1336 21.438 9.95646 22.2592 9.84787L22.0963 8.63845ZM18.2278 9.66462C17.3862 10.0074 16.5854 10.4193 15.8252 10.8944L16.47 11.9267C17.169 11.4896 17.9088 11.1102 18.6825 10.7953L18.2278 9.66462ZM14.7122 11.6559C13.9997 12.1899 13.3334 12.7829 12.7203 13.4286L13.6059 14.262C14.1692 13.6668 14.7869 13.1212 15.4384 12.6291L15.1126 12.1832L14.7122 11.6559ZM19.4291 12.2382L19.1304 13.4218L33.8579 17.1872L34.1565 16.0063L19.4291 12.2382ZM11.8393 14.4385C11.2835 15.1308 10.7846 15.8773 10.3503 16.6578L11.4124 17.255C11.8135 16.5288 12.2737 15.8434 12.7874 15.1986L11.8393 14.4385ZM20.5014 15.0357C20.2367 16.8003 20.6914 18.7821 21.4651 20.4109C21.8995 21.3204 22.4288 22.1212 22.9514 22.7049C23.2365 23.0239 23.5215 23.2682 23.7794 23.4446L23.4129 24.8835C23.1007 24.9106 22.7343 24.992 22.327 25.1346C21.5873 25.3925 20.7389 25.8404 19.9245 26.4309C18.4585 27.4896 17.1147 29.0031 16.5039 30.6794L27.8719 33.591C28.1366 31.8264 27.6819 29.8446 26.9082 28.2158C26.4738 27.3064 25.9444 26.5055 25.4218 25.9218C25.1368 25.6029 24.8518 25.3585 24.5939 25.1821L24.9603 23.7433C25.2657 23.7093 25.639 23.6347 26.0462 23.4922C26.786 23.2343 27.6344 22.7863 28.4488 22.1959C29.9147 21.1371 31.2585 19.6236 31.8694 17.9473L20.5014 15.0357ZM9.74694 17.8591C9.3852 18.6735 9.08861 19.5151 8.86464 20.3906L10.051 20.6756C10.2566 19.8748 10.5288 19.1011 10.862 18.3545L9.74694 17.8591ZM8.59046 21.7004C8.44861 22.5488 8.37328 23.4243 8.37328 24.3134V24.3744L9.59491 24.3609V24.3134C9.59491 23.4922 9.66414 22.6845 9.79512 21.8972L8.59046 21.7004ZM14.5154 31.4396L14.2168 32.6205L28.9442 36.3872L29.2428 35.2063L14.5154 31.4396Z" fill="#335CA6"/>
</svg>
