<svg width="48" height="49" viewBox="0 0 48 49" fill="none" xmlns="http://www.w3.org/2000/svg">
<rect y="0.5" width="48" height="48" rx="8" fill="#8FA60C" fill-opacity="0.15"/>
<path d="M34.6667 14C35.3739 14 36.0522 14.281 36.5523 14.781C37.0524 15.2811 37.3333 15.9594 37.3333 16.6667V30C37.3333 31.48 36.1467 32.6667 34.6667 32.6667H40V35.3333H8V32.6667H13.3333C12.6261 32.6667 11.9478 32.3857 11.4477 31.8856C10.9476 31.3855 10.6667 30.7072 10.6667 30V16.6667C10.6667 15.1867 11.8533 14 13.3333 14H34.6667ZM34.6667 16.6667H13.3333V30H34.6667V16.6667ZM24 24.6667C26.9467 24.6667 29.3333 25.8667 29.3333 27.3333V28.6667H18.6667V27.3333C18.6667 25.8667 21.0533 24.6667 24 24.6667ZM24 18C24.7072 18 25.3855 18.281 25.8856 18.781C26.3857 19.2811 26.6667 19.9594 26.6667 20.6667C26.6667 21.3739 26.3857 22.0522 25.8856 22.5523C25.3855 23.0524 24.7072 23.3333 24 23.3333C22.52 23.3333 21.3333 22.1467 21.3333 20.6667C21.3333 19.1867 22.5333 18 24 18Z" fill="#8FA60C"/>
</svg>
