<svg width="48" height="49" viewBox="0 0 48 49" fill="none" xmlns="http://www.w3.org/2000/svg">
<rect y="0.5" width="48" height="48" rx="8" fill="#8FA60C" fill-opacity="0.19"/>
<path d="M31.4415 27.2334C31.8362 27.2334 32.2148 27.0765 32.4939 26.7974C32.7731 26.5183 32.9299 26.1397 32.9299 25.7449C32.9299 25.3502 32.7731 24.9716 32.4939 24.6924C32.2148 24.4133 31.8362 24.2565 31.4415 24.2565C31.0467 24.2565 30.6681 24.4133 30.389 24.6924C30.1098 24.9716 29.953 25.3502 29.953 25.7449C29.953 26.1397 30.1098 26.5183 30.389 26.7974C30.6681 27.0765 31.0467 27.2334 31.4415 27.2334ZM31.4415 33.1871C31.8362 33.1871 32.2148 33.0303 32.4939 32.7512C32.7731 32.472 32.9299 32.0934 32.9299 31.6987C32.9299 31.3039 32.7731 30.9253 32.4939 30.6462C32.2148 30.3671 31.8362 30.2102 31.4415 30.2102C31.0467 30.2102 30.6681 30.3671 30.389 30.6462C30.1098 30.9253 29.953 31.3039 29.953 31.6987C29.953 32.0934 30.1098 32.472 30.389 32.7512C30.6681 33.0303 31.0467 33.1871 31.4415 33.1871ZM25.4877 25.7449C25.4877 26.1397 25.3309 26.5183 25.0517 26.7974C24.7726 27.0765 24.394 27.2334 23.9993 27.2334C23.6045 27.2334 23.2259 27.0765 22.9468 26.7974C22.6676 26.5183 22.5108 26.1397 22.5108 25.7449C22.5108 25.3502 22.6676 24.9716 22.9468 24.6924C23.2259 24.4133 23.6045 24.2565 23.9993 24.2565C24.394 24.2565 24.7726 24.4133 25.0517 24.6924C25.3309 24.9716 25.4877 25.3502 25.4877 25.7449ZM25.4877 31.6987C25.4877 32.0934 25.3309 32.472 25.0517 32.7512C24.7726 33.0303 24.394 33.1871 23.9993 33.1871C23.6045 33.1871 23.2259 33.0303 22.9468 32.7512C22.6676 32.472 22.5108 32.0934 22.5108 31.6987C22.5108 31.3039 22.6676 30.9253 22.9468 30.6462C23.2259 30.3671 23.6045 30.2102 23.9993 30.2102C24.394 30.2102 24.7726 30.3671 25.0517 30.6462C25.3309 30.9253 25.4877 31.3039 25.4877 31.6987ZM16.557 27.2334C16.9518 27.2334 17.3304 27.0765 17.6095 26.7974C17.8887 26.5183 18.0455 26.1397 18.0455 25.7449C18.0455 25.3502 17.8887 24.9716 17.6095 24.6924C17.3304 24.4133 16.9518 24.2565 16.557 24.2565C16.1623 24.2565 15.7837 24.4133 15.5046 24.6924C15.2254 24.9716 15.0686 25.3502 15.0686 25.7449C15.0686 26.1397 15.2254 26.5183 15.5046 26.7974C15.7837 27.0765 16.1623 27.2334 16.557 27.2334ZM16.557 33.1871C16.9518 33.1871 17.3304 33.0303 17.6095 32.7512C17.8887 32.472 18.0455 32.0934 18.0455 31.6987C18.0455 31.3039 17.8887 30.9253 17.6095 30.6462C17.3304 30.3671 16.9518 30.2102 16.557 30.2102C16.1623 30.2102 15.7837 30.3671 15.5046 30.6462C15.2254 30.9253 15.0686 31.3039 15.0686 31.6987C15.0686 32.0934 15.2254 32.472 15.5046 32.7512C15.7837 33.0303 16.1623 33.1871 16.557 33.1871Z" fill="#8FA60C"/>
<path fill-rule="evenodd" clip-rule="evenodd" d="M16.557 9C16.8531 9 17.1371 9.11761 17.3464 9.32697C17.5558 9.53632 17.6734 9.82026 17.6734 10.1163V11.252C18.6587 11.2327 19.7438 11.2327 20.9375 11.2327H27.0595C28.2547 11.2327 29.3398 11.2327 30.3251 11.252V10.1163C30.3251 9.82026 30.4427 9.53632 30.6521 9.32697C30.8614 9.11761 31.1454 9 31.4415 9C31.7375 9 32.0215 9.11761 32.2308 9.32697C32.4402 9.53632 32.5578 9.82026 32.5578 10.1163V11.3473C32.9448 11.377 33.3114 11.4147 33.6578 11.4604C35.4022 11.6956 36.8147 12.1897 37.9296 13.3031C39.0429 14.4179 39.5371 15.8305 39.7723 17.5749C40 19.2717 40 21.4374 40 24.1732V27.3168C40 30.0525 40 32.2197 39.7723 33.915C39.5371 35.6595 39.0429 37.072 37.9296 38.1868C36.8147 39.3002 35.4022 39.7944 33.6578 40.0295C31.9609 40.2573 29.7952 40.2573 27.0595 40.2573H20.9405C18.2048 40.2573 16.0376 40.2573 14.3422 40.0295C12.5978 39.7944 11.1853 39.3002 10.0704 38.1868C8.95707 37.072 8.46291 35.6595 8.22773 33.915C8 32.2182 8 30.0525 8 27.3168V24.1732C8 21.4374 8 19.2702 8.22773 17.5749C8.46291 15.8305 8.95707 14.4179 10.0704 13.3031C11.1853 12.1897 12.5978 11.6956 14.3422 11.4604C14.6896 11.4147 15.0562 11.377 15.4422 11.3473V10.1163C15.4422 9.82052 15.5596 9.5368 15.7686 9.32749C15.9777 9.11818 16.2612 9.00039 16.557 9ZM14.637 13.6737C13.1411 13.8746 12.2778 14.2527 11.6482 14.8823C11.0186 15.5119 10.6405 16.3752 10.4396 17.8711C10.4058 18.1241 10.377 18.3916 10.3532 18.6734H37.6453C37.6215 18.3916 37.5927 18.1236 37.559 17.8696C37.358 16.3737 36.98 15.5104 36.3503 14.8808C35.7207 14.2512 34.8574 13.8732 33.3601 13.6722C31.8314 13.4668 29.8146 13.4638 26.9761 13.4638H21.0224C18.1839 13.4638 16.1686 13.4683 14.637 13.6737ZM10.2312 24.2565C10.2312 22.9854 10.2312 21.8795 10.2505 20.9075H37.748C37.7673 21.8795 37.7673 22.9854 37.7673 24.2565V27.2334C37.7673 30.0719 37.7644 32.0887 37.559 33.6188C37.358 35.1147 36.98 35.978 36.3503 36.6076C35.7207 37.2372 34.8574 37.6153 33.3601 37.8162C31.8314 38.0216 29.8146 38.0246 26.9761 38.0246H21.0224C18.1839 38.0246 16.1686 38.0216 14.637 37.8162C13.1411 37.6153 12.2778 37.2372 11.6482 36.6076C11.0186 35.978 10.6405 35.1147 10.4396 33.6173C10.2342 32.0887 10.2312 30.0719 10.2312 27.2334V24.2565Z" fill="#8FA60C"/>
</svg>
